<svg width="32" height="32" viewBox="0 0 32 32" fill="none" xmlns="http://www.w3.org/2000/svg">
<path d="M12.0146 28.665C13.1391 29.1176 14.3592 29.3862 15.6401 29.4309C17.3737 29.4915 19.0222 29.1331 20.496 28.4522C18.7287 27.7578 17.1282 26.7424 15.7621 25.48C14.8766 26.8977 13.5669 28.0176 12.0146 28.665Z" fill="#FF9100"/>
<path d="M15.7615 25.4804C12.6432 22.5964 10.7516 18.4224 10.9115 13.8441C10.9167 13.6954 10.9245 13.5468 10.9337 13.3983C10.3752 13.2538 9.79221 13.1657 9.1922 13.1447C8.33335 13.1147 7.50165 13.2213 6.71644 13.4425C5.88404 14.9005 5.38171 16.5735 5.31914 18.3656C5.15764 22.9902 7.95636 27.0312 12.014 28.6654C13.5664 28.018 14.8759 26.8994 15.7615 25.4804Z" fill="#FFC400"/>
<path d="M15.7618 25.4803C16.4867 24.3201 16.9263 22.9599 16.9774 21.4944C17.112 17.6396 14.5206 14.3235 10.934 13.3982C10.9247 13.5467 10.917 13.6953 10.9117 13.8439C10.7518 18.4222 12.6435 22.5963 15.7618 25.4803Z" fill="#FF9100"/>
<path d="M16.5758 2.5625C14.533 4.19898 12.9199 6.35683 11.944 8.84261C11.3852 10.2664 11.0341 11.7959 10.9316 13.3991C14.5183 14.3245 17.1098 17.6405 16.9752 21.4953C16.924 22.9608 16.4831 24.3197 15.7594 25.4812C17.1254 26.745 18.726 27.7591 20.4934 28.4535C24.0407 26.8137 26.5575 23.2853 26.7032 19.1118C26.7977 16.4078 25.7588 13.9979 24.2908 11.9637C22.7405 9.81238 16.5758 2.5625 16.5758 2.5625Z" fill="#DD2C00"/>
</svg>
